<svg width="274" height="38" viewBox="0 0 274 38" fill="none" xmlns="http://www.w3.org/2000/svg">
<path d="M11 37.496H0.504V0.503998H11C13.944 0.503998 16.4187 1.528 18.424 3.576C20.472 5.58133 21.496 8.056 21.496 11C21.496 12.664 21.1973 14.0933 20.6 15.288C20.0453 16.4827 19.128 17.72 17.848 19C19.128 20.28 20.0453 21.5173 20.6 22.712C21.1973 23.9067 21.496 25.336 21.496 27C21.496 29.944 20.472 32.44 18.424 34.488C16.4187 36.4933 13.944 37.496 11 37.496ZM5.496 16.504H11C12.4507 16.504 13.752 15.9707 14.904 14.904C15.9707 13.752 16.504 12.4507 16.504 11C16.504 9.54933 15.9707 8.248 14.904 7.096C13.752 6.02933 12.4507 5.496 11 5.496H5.496V16.504ZM11 21.496H5.496V32.504H11C12.4507 32.504 13.752 31.9707 14.904 30.904C15.9707 29.752 16.504 28.4507 16.504 27C16.504 25.5493 15.9707 24.248 14.904 23.096C13.752 22.0293 12.4507 21.496 11 21.496ZM42.424 11C42.424 8.056 43.4267 5.58133 45.432 3.576C47.48 1.528 49.976 0.503998 52.92 0.503998C55.864 0.503998 58.3387 1.528 60.344 3.576C62.392 5.58133 63.416 8.056 63.416 11V37.496H58.424V21.496H47.416V37.496H42.424V11ZM47.416 16.504H58.424V11C58.424 9.54933 57.8907 8.248 56.824 7.096C55.672 6.02933 54.3707 5.496 52.92 5.496C51.4693 5.496 50.168 6.02933 49.016 7.096C47.9493 8.248 47.416 9.54933 47.416 11V16.504ZM84.344 0.503998H89.336V27C89.336 28.4507 89.8693 29.752 90.936 30.904C92.088 31.9707 93.3893 32.504 94.84 32.504C96.2907 32.504 97.592 31.9707 98.744 30.904C99.8107 29.752 100.344 28.4507 100.344 27V0.503998H105.336V27C105.336 29.944 104.312 32.44 102.264 34.488C100.259 36.4933 97.784 37.496 94.84 37.496C91.896 37.496 89.4 36.4933 87.352 34.488C85.3467 32.44 84.344 29.944 84.344 27V0.503998ZM126.264 0.503998H131.256V16.504H142.264V0.503998H147.256V37.496H142.264V21.496H131.256V37.496H126.264V0.503998ZM168.184 11C168.184 8.056 169.187 5.58133 171.192 3.576C173.24 1.528 175.736 0.503998 178.68 0.503998C181.624 0.503998 184.099 1.528 186.104 3.576C188.152 5.58133 189.176 8.056 189.176 11V37.496H184.184V21.496H173.176V37.496H168.184V11ZM173.176 16.504H184.184V11C184.184 9.54933 183.651 8.248 182.584 7.096C181.432 6.02933 180.131 5.496 178.68 5.496C177.229 5.496 175.928 6.02933 174.776 7.096C173.709 8.248 173.176 9.54933 173.176 11V16.504ZM210.104 0.503998H215.096V27C215.096 28.4507 215.629 29.752 216.696 30.904C217.848 31.9707 219.149 32.504 220.6 32.504C222.051 32.504 223.352 31.9707 224.504 30.904C225.571 29.752 226.104 28.4507 226.104 27V0.503998H231.096V27C231.096 29.944 230.072 32.44 228.024 34.488C226.019 36.4933 223.544 37.496 220.6 37.496C217.656 37.496 215.16 36.4933 213.112 34.488C211.107 32.44 210.104 29.944 210.104 27V0.503998ZM273.016 11H268.024C268.024 9.54933 267.491 8.248 266.424 7.096C265.272 6.02933 263.971 5.496 262.52 5.496C261.069 5.496 259.768 6.02933 258.616 7.096C257.549 8.248 257.016 9.54933 257.016 11C257.016 12.4507 257.549 13.752 258.616 14.904C259.768 15.9707 261.069 16.504 262.52 16.504C265.464 16.504 267.939 17.528 269.944 19.576C271.992 21.5813 273.016 24.056 273.016 27C273.016 29.944 271.992 32.44 269.944 34.488C267.939 36.4933 265.464 37.496 262.52 37.496C259.576 37.496 257.08 36.4933 255.032 34.488C253.027 32.44 252.024 29.944 252.024 27H257.016C257.016 28.4507 257.549 29.752 258.616 30.904C259.768 31.9707 261.069 32.504 262.52 32.504C263.971 32.504 265.272 31.9707 266.424 30.904C267.491 29.752 268.024 28.4507 268.024 27C268.024 25.5493 267.491 24.248 266.424 23.096C265.272 22.0293 263.971 21.496 262.52 21.496C259.576 21.496 257.08 20.4933 255.032 18.488C253.027 16.44 252.024 13.944 252.024 11C252.024 8.056 253.027 5.58133 255.032 3.576C257.08 1.528 259.576 0.503998 262.52 0.503998C265.464 0.503998 267.939 1.528 269.944 3.576C271.992 5.58133 273.016 8.056 273.016 11Z" fill="white"/>
</svg>
