<svg width="426" height="96" viewBox="0 0 426 96" fill="none" xmlns="http://www.w3.org/2000/svg">
<path d="M24 63.744H8.256V8.256H24C28.416 8.256 32.128 9.792 35.136 12.864C38.208 15.872 39.744 19.584 39.744 24C39.744 26.496 39.296 28.64 38.4 30.432C37.568 32.224 36.192 34.08 34.272 36C36.192 37.92 37.568 39.776 38.4 41.568C39.296 43.36 39.744 45.504 39.744 48C39.744 52.416 38.208 56.16 35.136 59.232C32.128 62.24 28.416 63.744 24 63.744ZM15.744 32.256H24C26.176 32.256 28.128 31.456 29.856 29.856C31.456 28.128 32.256 26.176 32.256 24C32.256 21.824 31.456 19.872 29.856 18.144C28.128 16.544 26.176 15.744 24 15.744H15.744V32.256ZM24 39.744H15.744V56.256H24C26.176 56.256 28.128 55.456 29.856 53.856C31.456 52.128 32.256 50.176 32.256 48C32.256 45.824 31.456 43.872 29.856 42.144C28.128 40.544 26.176 39.744 24 39.744ZM71.136 24C71.136 19.584 72.64 15.872 75.648 12.864C78.72 9.792 82.464 8.256 86.88 8.256C91.296 8.256 95.008 9.792 98.016 12.864C101.088 15.872 102.624 19.584 102.624 24V63.744H95.136V39.744H78.624V63.744H71.136V24ZM78.624 32.256H95.136V24C95.136 21.824 94.336 19.872 92.736 18.144C91.008 16.544 89.056 15.744 86.88 15.744C84.704 15.744 82.752 16.544 81.024 18.144C79.424 19.872 78.624 21.824 78.624 24V32.256ZM134.016 8.256H141.504V48C141.504 50.176 142.304 52.128 143.904 53.856C145.632 55.456 147.584 56.256 149.76 56.256C151.936 56.256 153.888 55.456 155.616 53.856C157.216 52.128 158.016 50.176 158.016 48V8.256H165.504V48C165.504 52.416 163.968 56.16 160.896 59.232C157.888 62.24 154.176 63.744 149.76 63.744C145.344 63.744 141.6 62.24 138.528 59.232C135.52 56.16 134.016 52.416 134.016 48V8.256ZM196.896 8.256H204.384V32.256H220.896V8.256H228.384V63.744H220.896V39.744H204.384V63.744H196.896V8.256ZM259.776 24C259.776 19.584 261.28 15.872 264.288 12.864C267.36 9.792 271.104 8.256 275.52 8.256C279.936 8.256 283.648 9.792 286.656 12.864C289.728 15.872 291.264 19.584 291.264 24V63.744H283.776V39.744H267.264V63.744H259.776V24ZM267.264 32.256H283.776V24C283.776 21.824 282.976 19.872 281.376 18.144C279.648 16.544 277.696 15.744 275.52 15.744C273.344 15.744 271.392 16.544 269.664 18.144C268.064 19.872 267.264 21.824 267.264 24V32.256ZM322.656 8.256H330.144V48C330.144 50.176 330.944 52.128 332.544 53.856C334.272 55.456 336.224 56.256 338.4 56.256C340.576 56.256 342.528 55.456 344.256 53.856C345.856 52.128 346.656 50.176 346.656 48V8.256H354.144V48C354.144 52.416 352.608 56.16 349.536 59.232C346.528 62.24 342.816 63.744 338.4 63.744C333.984 63.744 330.24 62.24 327.168 59.232C324.16 56.16 322.656 52.416 322.656 48V8.256ZM417.024 24H409.536C409.536 21.824 408.736 19.872 407.136 18.144C405.408 16.544 403.456 15.744 401.28 15.744C399.104 15.744 397.152 16.544 395.424 18.144C393.824 19.872 393.024 21.824 393.024 24C393.024 26.176 393.824 28.128 395.424 29.856C397.152 31.456 399.104 32.256 401.28 32.256C405.696 32.256 409.408 33.792 412.416 36.864C415.488 39.872 417.024 43.584 417.024 48C417.024 52.416 415.488 56.16 412.416 59.232C409.408 62.24 405.696 63.744 401.28 63.744C396.864 63.744 393.12 62.24 390.048 59.232C387.04 56.16 385.536 52.416 385.536 48H393.024C393.024 50.176 393.824 52.128 395.424 53.856C397.152 55.456 399.104 56.256 401.28 56.256C403.456 56.256 405.408 55.456 407.136 53.856C408.736 52.128 409.536 50.176 409.536 48C409.536 45.824 408.736 43.872 407.136 42.144C405.408 40.544 403.456 39.744 401.28 39.744C396.864 39.744 393.12 38.24 390.048 35.232C387.04 32.16 385.536 28.416 385.536 24C385.536 19.584 387.04 15.872 390.048 12.864C393.12 9.792 396.864 8.256 401.28 8.256C405.696 8.256 409.408 9.792 412.416 12.864C415.488 15.872 417.024 19.584 417.024 24Z" fill="black"/>
<path d="M8.256 63.744H7.256V64.744H8.256V63.744ZM8.256 8.256V7.256H7.256V8.256H8.256ZM35.136 12.864L34.4215 13.5636L34.4289 13.5711L34.4364 13.5785L35.136 12.864ZM38.4 30.432L37.5056 29.9848L37.4991 29.9977L37.493 30.0109L38.4 30.432ZM34.272 36L33.5649 35.2929L32.8578 36L33.5649 36.7071L34.272 36ZM38.4 41.568L37.493 41.9891L37.4991 42.0023L37.5056 42.0152L38.4 41.568ZM35.136 59.232L35.8431 59.9391L35.136 59.232ZM15.744 32.256H14.744V33.256H15.744V32.256ZM29.856 29.856L30.5354 30.5898L30.5636 30.5636L30.5898 30.5354L29.856 29.856ZM29.856 18.144L30.5898 17.4646L30.5636 17.4364L30.5354 17.4102L29.856 18.144ZM15.744 15.744V14.744H14.744V15.744H15.744ZM15.744 39.744V38.744H14.744V39.744H15.744ZM15.744 56.256H14.744V57.256H15.744V56.256ZM29.856 53.856L30.5354 54.5898L30.5636 54.5636L30.5898 54.5354L29.856 53.856ZM29.856 42.144L30.5898 41.4646L30.5636 41.4364L30.5354 41.4102L29.856 42.144ZM24 62.744H8.256V64.744H24V62.744ZM9.256 63.744V8.256H7.256V63.744H9.256ZM8.256 9.256H24V7.256H8.256V9.256ZM24 9.256C28.1553 9.256 31.6072 10.6895 34.4215 13.5636L35.8505 12.1644C32.6488 8.89449 28.6767 7.256 24 7.256V9.256ZM34.4364 13.5785C37.3105 16.3928 38.744 19.8447 38.744 24H40.744C40.744 19.3233 39.1055 15.3512 35.8356 12.1495L34.4364 13.5785ZM38.744 24C38.744 26.3781 38.3172 28.3616 37.5056 29.9848L39.2944 30.8792C40.2748 28.9184 40.744 26.6139 40.744 24H38.744ZM37.493 30.0109C36.725 31.665 35.4309 33.4269 33.5649 35.2929L34.9791 36.7071C36.9531 34.7331 38.411 32.783 39.307 30.8531L37.493 30.0109ZM33.5649 36.7071C35.4309 38.5731 36.725 40.335 37.493 41.9891L39.307 41.1469C38.411 39.217 36.9531 37.2669 34.9791 35.2929L33.5649 36.7071ZM37.5056 42.0152C38.3172 43.6384 38.744 45.6219 38.744 48H40.744C40.744 45.3861 40.2748 43.0816 39.2944 41.1208L37.5056 42.0152ZM38.744 48C38.744 52.1557 37.3099 55.6439 34.4289 58.5249L35.8431 59.9391C39.1061 56.6761 40.744 52.6763 40.744 48H38.744ZM34.4289 58.5249C31.6163 61.3375 28.1621 62.744 24 62.744V64.744C28.6699 64.744 32.6397 63.1425 35.8431 59.9391L34.4289 58.5249ZM15.744 33.256H24V31.256H15.744V33.256ZM24 33.256C26.4496 33.256 28.6391 32.3456 30.5354 30.5898L29.1766 29.1222C27.6169 30.5664 25.9024 31.256 24 31.256V33.256ZM30.5898 30.5354C32.3456 28.6391 33.256 26.4496 33.256 24H31.256C31.256 25.9023 30.5664 27.6169 29.1222 29.1766L30.5898 30.5354ZM33.256 24C33.256 21.5504 32.3456 19.3609 30.5898 17.4646L29.1222 18.8234C30.5664 20.3831 31.256 22.0976 31.256 24H33.256ZM30.5354 17.4102C28.6391 15.6544 26.4496 14.744 24 14.744V16.744C25.9024 16.744 27.6169 17.4336 29.1766 18.8778L30.5354 17.4102ZM24 14.744H15.744V16.744H24V14.744ZM14.744 15.744V32.256H16.744V15.744H14.744ZM24 38.744H15.744V40.744H24V38.744ZM14.744 39.744V56.256H16.744V39.744H14.744ZM15.744 57.256H24V55.256H15.744V57.256ZM24 57.256C26.4496 57.256 28.6391 56.3456 30.5354 54.5898L29.1766 53.1222C27.6169 54.5664 25.9024 55.256 24 55.256V57.256ZM30.5898 54.5354C32.3456 52.6391 33.256 50.4496 33.256 48H31.256C31.256 49.9024 30.5664 51.6169 29.1222 53.1766L30.5898 54.5354ZM33.256 48C33.256 45.5504 32.3456 43.3609 30.5898 41.4646L29.1222 42.8234C30.5664 44.3831 31.256 46.0976 31.256 48H33.256ZM30.5354 41.4102C28.6391 39.6544 26.4496 38.744 24 38.744V40.744C25.9024 40.744 27.6169 41.4336 29.1766 42.8778L30.5354 41.4102ZM75.648 12.864L74.9409 12.1569L75.648 12.864ZM98.016 12.864L97.3015 13.5636L97.3089 13.5711L97.3164 13.5785L98.016 12.864ZM102.624 63.744V64.744H103.624V63.744H102.624ZM95.136 63.744H94.136V64.744H95.136V63.744ZM95.136 39.744H96.136V38.744H95.136V39.744ZM78.624 39.744V38.744H77.624V39.744H78.624ZM78.624 63.744V64.744H79.624V63.744H78.624ZM71.136 63.744H70.136V64.744H71.136V63.744ZM78.624 32.256H77.624V33.256H78.624V32.256ZM95.136 32.256V33.256H96.136V32.256H95.136ZM92.736 18.144L93.4698 17.4646L93.4436 17.4364L93.4154 17.4102L92.736 18.144ZM81.024 18.144L80.3446 17.4102L80.3164 17.4364L80.2902 17.4646L81.024 18.144ZM72.136 24C72.136 19.8379 73.5425 16.3837 76.3551 13.5711L74.9409 12.1569C71.7375 15.3603 70.136 19.3301 70.136 24H72.136ZM76.3551 13.5711C79.2361 10.6901 82.7243 9.256 86.88 9.256V7.256C82.2037 7.256 78.2039 8.89392 74.9409 12.1569L76.3551 13.5711ZM86.88 9.256C91.0353 9.256 94.4873 10.6895 97.3015 13.5636L98.7305 12.1644C95.5288 8.89449 91.5567 7.256 86.88 7.256V9.256ZM97.3164 13.5785C100.19 16.3928 101.624 19.8447 101.624 24H103.624C103.624 19.3233 101.986 15.3512 98.7156 12.1495L97.3164 13.5785ZM101.624 24V63.744H103.624V24H101.624ZM102.624 62.744H95.136V64.744H102.624V62.744ZM96.136 63.744V39.744H94.136V63.744H96.136ZM95.136 38.744H78.624V40.744H95.136V38.744ZM77.624 39.744V63.744H79.624V39.744H77.624ZM78.624 62.744H71.136V64.744H78.624V62.744ZM72.136 63.744V24H70.136V63.744H72.136ZM78.624 33.256H95.136V31.256H78.624V33.256ZM96.136 32.256V24H94.136V32.256H96.136ZM96.136 24C96.136 21.5504 95.2256 19.3609 93.4698 17.4646L92.0022 18.8234C93.4464 20.3831 94.136 22.0976 94.136 24H96.136ZM93.4154 17.4102C91.5191 15.6544 89.3297 14.744 86.88 14.744V16.744C88.7824 16.744 90.4969 17.4336 92.0566 18.8778L93.4154 17.4102ZM86.88 14.744C84.4304 14.744 82.2409 15.6544 80.3446 17.4102L81.7034 18.8778C83.2631 17.4336 84.9776 16.744 86.88 16.744V14.744ZM80.2902 17.4646C78.5344 19.3609 77.624 21.5504 77.624 24H79.624C79.624 22.0976 80.3136 20.3831 81.7578 18.8234L80.2902 17.4646ZM77.624 24V32.256H79.624V24H77.624ZM134.016 8.256V7.256H133.016V8.256H134.016ZM141.504 8.256H142.504V7.256H141.504V8.256ZM143.904 53.856L143.17 54.5354L143.196 54.5636L143.225 54.5898L143.904 53.856ZM155.616 53.856L156.295 54.5898L156.324 54.5636L156.35 54.5354L155.616 53.856ZM158.016 8.256V7.256H157.016V8.256H158.016ZM165.504 8.256H166.504V7.256H165.504V8.256ZM160.896 59.232L161.603 59.9391L160.896 59.232ZM138.528 59.232L137.813 59.9316L137.821 59.9391L137.828 59.9465L138.528 59.232ZM134.016 9.256H141.504V7.256H134.016V9.256ZM140.504 8.256V48H142.504V8.256H140.504ZM140.504 48C140.504 50.4496 141.414 52.6391 143.17 54.5354L144.638 53.1766C143.194 51.6169 142.504 49.9024 142.504 48H140.504ZM143.225 54.5898C145.121 56.3456 147.31 57.256 149.76 57.256V55.256C147.858 55.256 146.143 54.5664 144.583 53.1222L143.225 54.5898ZM149.76 57.256C152.21 57.256 154.399 56.3456 156.295 54.5898L154.937 53.1222C153.377 54.5664 151.662 55.256 149.76 55.256V57.256ZM156.35 54.5354C158.106 52.6391 159.016 50.4496 159.016 48H157.016C157.016 49.9024 156.326 51.6169 154.882 53.1766L156.35 54.5354ZM159.016 48V8.256H157.016V48H159.016ZM158.016 9.256H165.504V7.256H158.016V9.256ZM164.504 8.256V48H166.504V8.256H164.504ZM164.504 48C164.504 52.1557 163.07 55.6439 160.189 58.5249L161.603 59.9391C164.866 56.6761 166.504 52.6763 166.504 48H164.504ZM160.189 58.5249C157.376 61.3375 153.922 62.744 149.76 62.744V64.744C154.43 64.744 158.4 63.1425 161.603 59.9391L160.189 58.5249ZM149.76 62.744C145.598 62.744 142.107 61.337 139.228 58.5175L137.828 59.9465C141.093 63.143 145.09 64.744 149.76 64.744V62.744ZM139.243 58.5324C136.423 55.6528 135.016 52.1623 135.016 48H133.016C133.016 52.6697 134.617 56.6672 137.813 59.9316L139.243 58.5324ZM135.016 48V8.256H133.016V48H135.016ZM196.896 8.256V7.256H195.896V8.256H196.896ZM204.384 8.256H205.384V7.256H204.384V8.256ZM204.384 32.256H203.384V33.256H204.384V32.256ZM220.896 32.256V33.256H221.896V32.256H220.896ZM220.896 8.256V7.256H219.896V8.256H220.896ZM228.384 8.256H229.384V7.256H228.384V8.256ZM228.384 63.744V64.744H229.384V63.744H228.384ZM220.896 63.744H219.896V64.744H220.896V63.744ZM220.896 39.744H221.896V38.744H220.896V39.744ZM204.384 39.744V38.744H203.384V39.744H204.384ZM204.384 63.744V64.744H205.384V63.744H204.384ZM196.896 63.744H195.896V64.744H196.896V63.744ZM196.896 9.256H204.384V7.256H196.896V9.256ZM203.384 8.256V32.256H205.384V8.256H203.384ZM204.384 33.256H220.896V31.256H204.384V33.256ZM221.896 32.256V8.256H219.896V32.256H221.896ZM220.896 9.256H228.384V7.256H220.896V9.256ZM227.384 8.256V63.744H229.384V8.256H227.384ZM228.384 62.744H220.896V64.744H228.384V62.744ZM221.896 63.744V39.744H219.896V63.744H221.896ZM220.896 38.744H204.384V40.744H220.896V38.744ZM203.384 39.744V63.744H205.384V39.744H203.384ZM204.384 62.744H196.896V64.744H204.384V62.744ZM197.896 63.744V8.256H195.896V63.744H197.896ZM264.288 12.864L263.581 12.1569L264.288 12.864ZM286.656 12.864L285.941 13.5636L285.949 13.5711L285.956 13.5785L286.656 12.864ZM291.264 63.744V64.744H292.264V63.744H291.264ZM283.776 63.744H282.776V64.744H283.776V63.744ZM283.776 39.744H284.776V38.744H283.776V39.744ZM267.264 39.744V38.744H266.264V39.744H267.264ZM267.264 63.744V64.744H268.264V63.744H267.264ZM259.776 63.744H258.776V64.744H259.776V63.744ZM267.264 32.256H266.264V33.256H267.264V32.256ZM283.776 32.256V33.256H284.776V32.256H283.776ZM281.376 18.144L282.11 17.4646L282.084 17.4364L282.055 17.4102L281.376 18.144ZM269.664 18.144L268.985 17.4102L268.956 17.4364L268.93 17.4646L269.664 18.144ZM260.776 24C260.776 19.8379 262.182 16.3837 264.995 13.5711L263.581 12.1569C260.378 15.3603 258.776 19.3301 258.776 24H260.776ZM264.995 13.5711C267.876 10.6901 271.364 9.256 275.52 9.256V7.256C270.844 7.256 266.844 8.89392 263.581 12.1569L264.995 13.5711ZM275.52 9.256C279.675 9.256 283.127 10.6895 285.941 13.5636L287.371 12.1644C284.169 8.89449 280.197 7.256 275.52 7.256V9.256ZM285.956 13.5785C288.831 16.3928 290.264 19.8447 290.264 24H292.264C292.264 19.3233 290.626 15.3512 287.356 12.1495L285.956 13.5785ZM290.264 24V63.744H292.264V24H290.264ZM291.264 62.744H283.776V64.744H291.264V62.744ZM284.776 63.744V39.744H282.776V63.744H284.776ZM283.776 38.744H267.264V40.744H283.776V38.744ZM266.264 39.744V63.744H268.264V39.744H266.264ZM267.264 62.744H259.776V64.744H267.264V62.744ZM260.776 63.744V24H258.776V63.744H260.776ZM267.264 33.256H283.776V31.256H267.264V33.256ZM284.776 32.256V24H282.776V32.256H284.776ZM284.776 24C284.776 21.5504 283.866 19.3609 282.11 17.4646L280.642 18.8234C282.086 20.3831 282.776 22.0976 282.776 24H284.776ZM282.055 17.4102C280.159 15.6544 277.97 14.744 275.52 14.744V16.744C277.422 16.744 279.137 17.4336 280.697 18.8778L282.055 17.4102ZM275.52 14.744C273.07 14.744 270.881 15.6544 268.985 17.4102L270.343 18.8778C271.903 17.4336 273.618 16.744 275.52 16.744V14.744ZM268.93 17.4646C267.174 19.3609 266.264 21.5504 266.264 24H268.264C268.264 22.0976 268.954 20.3831 270.398 18.8234L268.93 17.4646ZM266.264 24V32.256H268.264V24H266.264ZM322.656 8.256V7.256H321.656V8.256H322.656ZM330.144 8.256H331.144V7.256H330.144V8.256ZM332.544 53.856L331.81 54.5354L331.836 54.5636L331.865 54.5898L332.544 53.856ZM344.256 53.856L344.935 54.5898L344.964 54.5636L344.99 54.5354L344.256 53.856ZM346.656 8.256V7.256H345.656V8.256H346.656ZM354.144 8.256H355.144V7.256H354.144V8.256ZM349.536 59.232L350.243 59.9391L349.536 59.232ZM327.168 59.232L326.453 59.9316L326.461 59.9391L326.468 59.9465L327.168 59.232ZM322.656 9.256H330.144V7.256H322.656V9.256ZM329.144 8.256V48H331.144V8.256H329.144ZM329.144 48C329.144 50.4496 330.054 52.6391 331.81 54.5354L333.278 53.1766C331.834 51.6169 331.144 49.9024 331.144 48H329.144ZM331.865 54.5898C333.761 56.3456 335.95 57.256 338.4 57.256V55.256C336.498 55.256 334.783 54.5664 333.223 53.1222L331.865 54.5898ZM338.4 57.256C340.85 57.256 343.039 56.3456 344.935 54.5898L343.577 53.1222C342.017 54.5664 340.302 55.256 338.4 55.256V57.256ZM344.99 54.5354C346.746 52.6391 347.656 50.4496 347.656 48H345.656C345.656 49.9024 344.966 51.6169 343.522 53.1766L344.99 54.5354ZM347.656 48V8.256H345.656V48H347.656ZM346.656 9.256H354.144V7.256H346.656V9.256ZM353.144 8.256V48H355.144V8.256H353.144ZM353.144 48C353.144 52.1557 351.71 55.6439 348.829 58.5249L350.243 59.9391C353.506 56.6761 355.144 52.6763 355.144 48H353.144ZM348.829 58.5249C346.016 61.3375 342.562 62.744 338.4 62.744V64.744C343.07 64.744 347.04 63.1425 350.243 59.9391L348.829 58.5249ZM338.4 62.744C334.238 62.744 330.747 61.337 327.868 58.5175L326.468 59.9465C329.733 63.143 333.73 64.744 338.4 64.744V62.744ZM327.883 58.5324C325.063 55.6528 323.656 52.1623 323.656 48H321.656C321.656 52.6697 323.257 56.6672 326.453 59.9316L327.883 58.5324ZM323.656 48V8.256H321.656V48H323.656ZM417.024 24V25H418.024V24H417.024ZM409.536 24H408.536V25H409.536V24ZM407.136 18.144L407.87 17.4646L407.844 17.4364L407.815 17.4102L407.136 18.144ZM395.424 18.144L394.745 17.4102L394.716 17.4364L394.69 17.4646L395.424 18.144ZM395.424 29.856L394.69 30.5354L394.716 30.5636L394.745 30.5898L395.424 29.856ZM412.416 36.864L411.701 37.5636L411.709 37.5711L411.716 37.5785L412.416 36.864ZM412.416 59.232L413.123 59.9391L412.416 59.232ZM390.048 59.232L389.333 59.9316L389.341 59.9391L389.348 59.9465L390.048 59.232ZM385.536 48V47H384.536V48H385.536ZM393.024 48H394.024V47H393.024V48ZM395.424 53.856L394.69 54.5354L394.716 54.5636L394.745 54.5898L395.424 53.856ZM407.136 53.856L407.815 54.5898L407.844 54.5636L407.87 54.5354L407.136 53.856ZM407.136 42.144L407.87 41.4646L407.844 41.4364L407.815 41.4102L407.136 42.144ZM390.048 35.232L389.333 35.9316L389.341 35.9391L389.348 35.9465L390.048 35.232ZM390.048 12.864L389.341 12.1569L390.048 12.864ZM412.416 12.864L411.701 13.5636L411.709 13.5711L411.716 13.5785L412.416 12.864ZM417.024 23H409.536V25H417.024V23ZM410.536 24C410.536 21.5504 409.626 19.3609 407.87 17.4646L406.402 18.8234C407.846 20.3831 408.536 22.0976 408.536 24H410.536ZM407.815 17.4102C405.919 15.6544 403.73 14.744 401.28 14.744V16.744C403.182 16.744 404.897 17.4336 406.457 18.8778L407.815 17.4102ZM401.28 14.744C398.83 14.744 396.641 15.6544 394.745 17.4102L396.103 18.8778C397.663 17.4336 399.378 16.744 401.28 16.744V14.744ZM394.69 17.4646C392.934 19.3609 392.024 21.5504 392.024 24H394.024C394.024 22.0976 394.714 20.3831 396.158 18.8234L394.69 17.4646ZM392.024 24C392.024 26.4496 392.934 28.6391 394.69 30.5354L396.158 29.1766C394.714 27.6169 394.024 25.9023 394.024 24H392.024ZM394.745 30.5898C396.641 32.3456 398.83 33.256 401.28 33.256V31.256C399.378 31.256 397.663 30.5664 396.103 29.1222L394.745 30.5898ZM401.28 33.256C405.435 33.256 408.887 34.6895 411.701 37.5636L413.131 36.1644C409.929 32.8945 405.957 31.256 401.28 31.256V33.256ZM411.716 37.5785C414.59 40.3928 416.024 43.8447 416.024 48H418.024C418.024 43.3233 416.385 39.3512 413.116 36.1495L411.716 37.5785ZM416.024 48C416.024 52.1557 414.59 55.6439 411.709 58.5249L413.123 59.9391C416.386 56.6761 418.024 52.6763 418.024 48H416.024ZM411.709 58.5249C408.896 61.3375 405.442 62.744 401.28 62.744V64.744C405.95 64.744 409.92 63.1425 413.123 59.9391L411.709 58.5249ZM401.28 62.744C397.118 62.744 393.627 61.337 390.748 58.5175L389.348 59.9465C392.613 63.143 396.61 64.744 401.28 64.744V62.744ZM390.763 58.5324C387.943 55.6528 386.536 52.1623 386.536 48H384.536C384.536 52.6697 386.137 56.6672 389.333 59.9316L390.763 58.5324ZM385.536 49H393.024V47H385.536V49ZM392.024 48C392.024 50.4496 392.934 52.6391 394.69 54.5354L396.158 53.1766C394.714 51.6169 394.024 49.9024 394.024 48H392.024ZM394.745 54.5898C396.641 56.3456 398.83 57.256 401.28 57.256V55.256C399.378 55.256 397.663 54.5664 396.103 53.1222L394.745 54.5898ZM401.28 57.256C403.73 57.256 405.919 56.3456 407.815 54.5898L406.457 53.1222C404.897 54.5664 403.182 55.256 401.28 55.256V57.256ZM407.87 54.5354C409.626 52.6391 410.536 50.4496 410.536 48H408.536C408.536 49.9024 407.846 51.6169 406.402 53.1766L407.87 54.5354ZM410.536 48C410.536 45.5504 409.626 43.3609 407.87 41.4646L406.402 42.8234C407.846 44.3831 408.536 46.0976 408.536 48H410.536ZM407.815 41.4102C405.919 39.6544 403.73 38.744 401.28 38.744V40.744C403.182 40.744 404.897 41.4336 406.457 42.8778L407.815 41.4102ZM401.28 38.744C397.118 38.744 393.627 37.337 390.748 34.5175L389.348 35.9465C392.613 39.143 396.61 40.744 401.28 40.744V38.744ZM390.763 34.5324C387.943 31.6528 386.536 28.1623 386.536 24H384.536C384.536 28.6697 386.137 32.6671 389.333 35.9316L390.763 34.5324ZM386.536 24C386.536 19.8379 387.942 16.3837 390.755 13.5711L389.341 12.1569C386.138 15.3603 384.536 19.3301 384.536 24H386.536ZM390.755 13.5711C393.636 10.6901 397.124 9.256 401.28 9.256V7.256C396.604 7.256 392.604 8.89392 389.341 12.1569L390.755 13.5711ZM401.28 9.256C405.435 9.256 408.887 10.6895 411.701 13.5636L413.131 12.1644C409.929 8.89449 405.957 7.256 401.28 7.256V9.256ZM411.716 13.5785C414.59 16.3928 416.024 19.8447 416.024 24H418.024C418.024 19.3233 416.385 15.3512 413.116 12.1495L411.716 13.5785Z" fill="black"/>
</svg>
